<svg id="calendar" xmlns="http://www.w3.org/2000/svg" width="21.386" height="21.386" viewBox="0 0 21.386 21.386">
  <g id="Group_439" data-name="Group 439">
    <g id="Group_438" data-name="Group 438">
      <path id="Path_6405" data-name="Path 6405" d="M19.247,2.139H18.178V1.069a1.069,1.069,0,1,0-2.139,0V2.139H5.346V1.069A1.01,1.01,0,0,0,4.277,0,1.01,1.01,0,0,0,3.208,1.069V2.139H1.069A1.072,1.072,0,0,0,0,3.208v14.97a1.072,1.072,0,0,0,1.069,1.069H7.592A8.511,8.511,0,0,1,20.316,8.34V3.208A1.15,1.15,0,0,0,19.247,2.139Z" fill="#f7f4ea"/>
    </g>
  </g>
  <g id="Group_441" data-name="Group 441" transform="translate(8.554 8.554)">
    <g id="Group_440" data-name="Group 440">
      <path id="Path_6406" data-name="Path 6406" d="M211.216,204.8a6.416,6.416,0,1,0,6.416,6.416A6.435,6.435,0,0,0,211.216,204.8Zm2.139,7.485h-2.139a1.01,1.01,0,0,1-1.069-1.069v-3.208a1.069,1.069,0,1,1,2.139,0v2.139h1.069a1.069,1.069,0,0,1,0,2.139Z" transform="translate(-204.8 -204.8)" fill="#f7f4ea"/>
    </g>
  </g>
</svg>
