<svg xmlns="http://www.w3.org/2000/svg" width="19.499" height="17.702" viewBox="0 0 19.499 17.702">
  <path id="Path_6267" data-name="Path 6267" d="M418.146,409.184l-8.521-8.526a1.305,1.305,0,0,0-1.761,0l-8.526,8.526a1.184,1.184,0,0,0,1.675,1.675l.979-.979c0,.025-.008.049-.008.078l.782,6.514a1.55,1.55,0,0,0,1.547,1.547H412.9a1.55,1.55,0,0,0,1.547-1.547l1.053-6.518c0-.025-.008-.049-.008-.078l.979.979a1.183,1.183,0,0,0,1.675-1.67Zm-9.4,1.884a2.518,2.518,0,1,1,2.518-2.518A2.518,2.518,0,0,1,408.744,411.068Z" transform="translate(-398.993 -400.316)" fill="#fff"/>
</svg>
