<svg xmlns="http://www.w3.org/2000/svg" width="18.658" height="19.894" viewBox="0 0 18.658 19.894">
  <path id="search" d="M19.359,18.12l-4.6-4.924A8.149,8.149,0,0,0,16.59,8.032,7.929,7.929,0,0,0,8.787,0a7.929,7.929,0,0,0-7.8,8.032,7.929,7.929,0,0,0,7.8,8.032,7.568,7.568,0,0,0,4.47-1.453l4.635,4.962a1,1,0,0,0,1.439.029A1.071,1.071,0,0,0,19.359,18.12ZM8.787,2.1a5.86,5.86,0,0,1,5.767,5.937,5.86,5.86,0,0,1-5.767,5.937A5.86,5.86,0,0,1,3.02,8.032,5.86,5.86,0,0,1,8.787,2.1Z" transform="translate(-0.984)" fill="#241c35"/>
</svg>
