<svg id="Component_2_1" data-name="Component 2 – 1" xmlns="http://www.w3.org/2000/svg" width="8.298" height="9.919" viewBox="0 0 8.298 9.919">
  <path id="Path_6515" data-name="Path 6515" d="M.293.3a1,1,0,0,0,0,1.418L2.739,4.14.293,6.586A1,1,0,0,0,1.712,8L4.857,4.859a.976.976,0,0,0,.288-.72,1.064,1.064,0,0,0-.288-.72L1.712.275A1.025,1.025,0,0,0,.293.3Z" transform="translate(0 9.919) rotate(-90)" fill="#91818a"/>
  <path id="Path_6516" data-name="Path 6516" d="M.293.3a1,1,0,0,0,0,1.418L2.739,4.14.293,6.586A1,1,0,0,0,1.712,8L4.857,4.859a.976.976,0,0,0,.288-.72,1.064,1.064,0,0,0-.288-.72L1.712.275A1.025,1.025,0,0,0,.293.3Z" transform="translate(0 5.145) rotate(-90)" fill="#91818a" opacity="0.496"/>
</svg>
