<svg id="Layer_1" data-name="Layer 1" xmlns="http://www.w3.org/2000/svg" viewBox="0 0 851 313"><defs><style>.cls-1,.cls-3{fill:#d18075;}.cls-2{fill:#f7f5e9;}.cls-3{font-size:15.71px;font-family:Poppins-SemiBold, Poppins;font-weight:600;letter-spacing:0.16em;}.cls-4{fill:#91818b;fill-rule:evenodd;}</style></defs><path class="cls-1" d="M71.22,274.71,82.1,287.15a2.35,2.35,0,0,0,2,1,2.5,2.5,0,0,0,2-1.07l11.1-12.63Z"/><path class="cls-2" d="M319.06,95.27C310.42,91.76,302,87.82,302,77.07V76.2c.22-7.9,8.63-13.38,19.49-13.38h1.33a21.53,21.53,0,0,1,11.74,4.39,12.94,12.94,0,0,0,7.75,2.41,13.27,13.27,0,0,0,10.41-5,12.44,12.44,0,0,0,2.66-7.68,13,13,0,0,0-5.1-10.08c-7.75-5.7-17.27-9.43-26.58-9.65h-1.95a50,50,0,0,0-30.34,9.92,36.39,36.39,0,0,0-15.06,28.43v1.76c0,19.83,11.51,34.15,34.33,42.31l.88.44c8.42,2.42,27.69,11.46,28.35,21.59v.89a22.15,22.15,0,0,1-6.86,15.86c-4.65,4.63-11.08,7-18.83,7h-.61c-9-.22-16.44-5-19.95-12.71a12.72,12.72,0,0,0-2.13-3.24,51,51,0,0,0,.56-6.74c0-20.72-9.55-36.6-26.9-45.19a63,63,0,0,0-25.34-6.18H204.35a12.74,12.74,0,0,0-12.73,12.74v64.21h-52V117.37h24.92a13,13,0,1,0-.07-26H139.6V66.44h42.67a13.23,13.23,0,0,0,12.9-9.75,13,13,0,0,0-12.69-16.26H126.8a13.2,13.2,0,0,0-13.17,12.33l0,0V91.36H47.47a13,13,0,0,0,0,26H71.32V244.18h26V117.37h16.25v57.48c0,.52,0,1,0,1.53,0,.27,0,.54,0,.81v3.92a13.2,13.2,0,0,0,9,12.51l.27.1.1,0a12.21,12.21,0,0,0,3.75.57h64.92v36.12c0,6.17,4.95,12.17,11.07,12.95a13,13,0,0,0,14.94-12.67v-36.4h22.23c16.74,0,30.62-6.09,39.94-17.24a49,49,0,0,0,32.94,14h1.75c14.47,0,27.63-5.26,37.27-14.9a47.44,47.44,0,0,0,13.81-33.55v-2.85C364.25,109.52,325.71,97.24,319.06,95.27Zm-57.49,61.46c-4.15,7.87-11.15,11.58-22.08,11.58H217.63V117.37h21.86A34,34,0,0,1,253,120.65c8.31,4.16,12.25,11.15,12.25,22.08A34.25,34.25,0,0,1,261.57,156.73Z"/><path class="cls-2" d="M337.85,25.88h3.65v9.06a1.24,1.24,0,0,0,1.24,1.24h.33a1.25,1.25,0,0,0,1.24-1.24V25.88H348a1.25,1.25,0,0,0,1.24-1.24V24.3A1.25,1.25,0,0,0,348,23.06H337.85a1.24,1.24,0,0,0-1.24,1.24v.34A1.24,1.24,0,0,0,337.85,25.88Z"/><path class="cls-2" d="M351.74,36.23a1.41,1.41,0,0,0,1.6-1.19l.86-5.68L357,34.21a1.21,1.21,0,0,0,.24.35v0l.17.15.08.06.08.05.05,0,.17.07,0,0a1.41,1.41,0,0,0,1.15-.1,1.38,1.38,0,0,0,.6-.71l2.76-4.77.85,5.67a1.41,1.41,0,1,0,2.78-.41l-1.42-9.49a1.41,1.41,0,0,0-.7-1.22,1.4,1.4,0,0,0-1.45,0h0a.7.7,0,0,0-.17.13l-.07.06-.09.1a1,1,0,0,0-.12.17h0l0,.05s0,.05,0,.08l-3.59,6.22-3.66-6.34,0-.06-.09-.12-.09-.09a.57.57,0,0,0-.11-.11l-.08-.06-.16-.1-.07,0-.18-.07-.08,0-.11,0h-.45l-.16,0-.12,0-.13.06-.05,0a.18.18,0,0,0-.07.05l-.11.07-.11.1-.08.09a.94.94,0,0,0-.09.12.41.41,0,0,0-.07.11l-.06.12s0,.09-.05.14l0,.12a.29.29,0,0,0,0,.09l-1.45,9.67A1.41,1.41,0,0,0,351.74,36.23Z"/><text class="cls-3" transform="translate(71.83 266.19)">A JOINT VENTURE WITH PMC</text><path class="cls-4" d="M474,136.42H456.74V119.18a4.93,4.93,0,0,0-9.86,0v17.25H429.63a4.93,4.93,0,1,0,0,9.86h17.25v17.24a4.94,4.94,0,0,0,9.87,0V146.28H474a4.93,4.93,0,0,0,0-9.86Z"/><path class="cls-2" d="M671,15a142.5,142.5,0,1,0,142.5,142.5A142.5,142.5,0,0,0,671,15Zm0,281.51a139,139,0,1,1,139-139A139,139,0,0,1,671,296.51Z"/><path class="cls-2" d="M671,51.58A105.92,105.92,0,1,0,776.9,157.5,105.92,105.92,0,0,0,671,51.58Zm0,208.33A102.41,102.41,0,1,1,773.39,157.5,102.41,102.41,0,0,1,671,259.91Z"/><path class="cls-2" d="M691.47,126.33a26.45,26.45,0,0,1-30.82,4.84l-.07,0a30,30,0,0,1-3-1.86,26.24,26.24,0,0,1-10.74-26.94c2.25-11,11.83-19.87,23-20.78-12.67,6.58-17.39,16.38-13.59,27.36A21,21,0,0,0,663.68,119a19.91,19.91,0,0,0,3.19,1.93,20.87,20.87,0,0,0,13.38,1.76c11.34-2.27,17.52-11.35,16.8-24.72C701.48,106,699,118.79,691.47,126.33Z"/><path class="cls-2" d="M685,102.11c-1.16-.85-2.83-2-4-2.88a1.39,1.39,0,0,0-2,0c-1.17.92-2.4,1.76-4,2.93.59-1.88,1-3.35,1.53-4.78a1.26,1.26,0,0,0-.59-1.73c-1.25-.82-2.42-1.75-4-2.93,1.75,0,3,0,4.41,0s1.83-.31,2.25-1.61a17.26,17.26,0,0,1,1.52-3.75c.44,1.31,1,2.59,1.29,3.92.27,1.07.75,1.51,1.9,1.42,1.42-.11,2.85,0,4.75,0-1.45,1-2.48,1.89-3.6,2.58s-1.45,1.38-.89,2.62a35.51,35.51,0,0,1,1.22,3.65A2.93,2.93,0,0,1,685,102.11Z"/><path class="cls-2" d="M706.76,136.15c5.47,4.07,10.86,8.25,16.45,12.16s11.32,7.54,17,11.3a6.75,6.75,0,0,1-7.92,2.73,22,22,0,0,1-7-3.54c-4.74-3.94-9.15-8.29-13.71-12.44-1.71-1.56-3.48-3.07-5.26-4.55a11,11,0,0,0-1.72-1l-.4.46,21.06,23.15a5.87,5.87,0,0,1-5,.26,19.44,19.44,0,0,1-6.2-3.61,116,116,0,0,1-8.16-9.64c-1.55-1.93-2.95-4-4.44-6a3.29,3.29,0,0,0-3.88-1.29,14.63,14.63,0,0,1-9-.21,4,4,0,0,1-2.85-2.81,38,38,0,0,0,5.12-.78,7.55,7.55,0,0,0,5.76-6.43c1.28-7.44,5.41-10.76,13-10.51,6,.19,11.75,2,17.39,4,6.92,2.44,13.74,5.19,20.69,7.52,5.93,2,12,3.61,18.15,5.43a7.89,7.89,0,0,1-5.57,4.87,17.33,17.33,0,0,1-9.71-.24c-5.75-1.75-11.44-3.7-17.08-5.78-5.94-2.2-11.76-4.7-17.69-6.93a42.19,42.19,0,0,0-5.62-1.34l-.26.72,45,20.65a4.89,4.89,0,0,1-5.29,4,22.17,22.17,0,0,1-8.23-1.9c-6.71-3.43-13.17-7.33-19.72-11.08-3.48-2-6.89-4.1-10.39-6.05a34.85,34.85,0,0,0-4.15-1.66Z"/><path class="cls-2" d="M638.08,136.15c-5.47,4.07-10.86,8.25-16.45,12.16s-11.32,7.54-17,11.3a6.75,6.75,0,0,0,7.92,2.73,22,22,0,0,0,7-3.54c4.74-3.94,9.15-8.29,13.71-12.44,1.72-1.56,3.48-3.07,5.26-4.55a11,11,0,0,1,1.72-1l.4.46-21.06,23.15a5.87,5.87,0,0,0,5,.26,19.33,19.33,0,0,0,6.2-3.61,116,116,0,0,0,8.16-9.64c1.55-1.93,2.95-4,4.44-6a3.29,3.29,0,0,1,3.88-1.29,14.63,14.63,0,0,0,9-.21,4,4,0,0,0,2.85-2.81,37.6,37.6,0,0,1-5.11-.78,7.55,7.55,0,0,1-5.77-6.43c-1.28-7.44-5.4-10.76-13-10.51-6,.19-11.75,2-17.39,4-6.92,2.44-13.74,5.19-20.69,7.52-5.93,2-12,3.61-18.15,5.43a7.89,7.89,0,0,0,5.57,4.87,17.33,17.33,0,0,0,9.71-.24c5.75-1.75,11.44-3.7,17.08-5.78,5.94-2.2,11.76-4.7,17.69-6.93a42.56,42.56,0,0,1,5.62-1.34l.26.72-45,20.65a4.9,4.9,0,0,0,5.3,4,22.17,22.17,0,0,0,8.22-1.9c6.71-3.43,13.17-7.33,19.72-11.08,3.48-2,6.89-4.1,10.39-6.05a35.54,35.54,0,0,1,4.15-1.66Z"/><path class="cls-2" d="M675.79,189.57c1.83-.79,3.69-1.52,5.47-2.41a7.65,7.65,0,0,0,1.66-1.57c-.6-.55-1.12-1.41-1.82-1.61-4.68-1.38-9.43-2.5-14.09-3.93a71.6,71.6,0,0,1-11.6-4.2,29.12,29.12,0,0,1-7.63-6,10.08,10.08,0,0,1-1.91-11.69c2.08-4.5,5.53-7.69,10.72-8.14,4.58-.4,9.6,3.29,10.93,7.71.52,1.72.05,2.44-1.8,2.24-2.05-.22-4.06-.72-6.09-1.11a22.82,22.82,0,0,0-3-.59,4,4,0,0,0-4,5.77,12.45,12.45,0,0,0,3.06,3.86c3.25,2.77,7.19,4.25,11.24,5.43S675,175.44,679,176.8a40.71,40.71,0,0,1,8.57,3.9c3.72,2.36,3.91,6,.73,9.11a22.29,22.29,0,0,1-3.91,2.78,1.81,1.81,0,0,1-1.42.14C680.54,191.73,678.2,190.65,675.79,189.57Z"/><path class="cls-2" d="M674.74,141.22c0,3.24-.11,7.18-.17,11.21-.12,8-.24,16.32-.36,20.24,0,.23-.05.46-.08.76a5.77,5.77,0,0,1-.68,0c-3.46-.62-3.46-.62-3.52-3-.09-3.36-.18-10.74-.26-18,0-4-.09-7.94-.13-11.17A45.1,45.1,0,0,0,674.74,141.22Z"/><path class="cls-2" d="M676.12,174a29.65,29.65,0,0,0,2.87-1,105,105,0,0,0,9.54-4.64,13.15,13.15,0,0,0,3.6-4,3.62,3.62,0,0,0-.17-4.36,4.08,4.08,0,0,0-4.09-1.65c-.84.1-1.68.34-2.52.52-1.74.36-3.46.84-5.22,1a11,11,0,0,1-2.91-.44,11.85,11.85,0,0,1,.58-2.77c3.45-7.22,11.74-8.77,17.61-3.35,4.35,4,5.55,8.58,3.55,13.66a5.61,5.61,0,0,1-1.08,1.93,69.6,69.6,0,0,1-5.72,5.42c-3,2.43-6.21,3.89-10.14,1.53C680.46,174.87,678.45,174.66,676.12,174Z"/><path class="cls-2" d="M676.83,203.47a29.23,29.23,0,0,0,2.76-1.34c1.1-.67.94-1.6,0-2.19a19.4,19.4,0,0,0-3.72-1.74c-4.54-1.59-9.14-3-13.67-4.66a13.64,13.64,0,0,1-6.56-4.55,5.67,5.67,0,0,1,2.77-9,3,3,0,0,1,1,0,1.15,1.15,0,0,1,.32.12l8.42,2.5a39.05,39.05,0,0,0-4.27,1.33,10,10,0,0,0-2,1.65c.6.61,1.1,1.51,1.83,1.79,3,1.16,6.09,2,9.09,3.17,3.27,1.23,6.54,2.49,9.7,4a7.76,7.76,0,0,1,4.59,6.25,5.85,5.85,0,0,1-3.49,6.12,1.63,1.63,0,0,1-1.18-.21C680.48,205.6,678.59,204.49,676.83,203.47Z"/><path class="cls-2" d="M679.36,215.59,675,213.34c.24-.79.92-1.89.63-2.31a4.16,4.16,0,0,0-2.44-1.28c-2.75-.6-5.53-1-8.28-1.58a15,15,0,0,1-3.53-1.31,6.54,6.54,0,0,1-.46-11.6,1.69,1.69,0,0,1,1.25-.27c2.41.86,4.8,1.8,7.53,2.84a35.91,35.91,0,0,0-3.51,1.74,10.52,10.52,0,0,0-1.75,1.66c.64.51,1.2,1.26,1.93,1.48,2.52.75,5.1,1.32,7.66,2,1.33.33,2.69.58,4,1,2,.7,3.82,1.6,4.12,4.1S681.26,214.18,679.36,215.59Z"/><path class="cls-2" d="M662.75,209.08l6.49,1.52c-.39,1.62.75,2.34,2,2.9,1.66.76,3.42,1.32,5.06,2.14,4.73,2.35,5.55,5.53,2.51,9.88a44.51,44.51,0,0,1-3.4,3.82l-1.89-1.67c3-5,2.85-5.68-2.16-8.67-1.68-1-3.36-2-5-3.05a7.29,7.29,0,0,1-3.56-4.64A12.62,12.62,0,0,1,662.75,209.08Z"/><path class="cls-2" d="M679.94,235.93c-4.4-2.29-8.79-4.58-12.12-8.3a19.73,19.73,0,0,1-3.26-5.54c-.69-1.65,0-3.22,1.5-4.46l4.46,2.9c-1.82,2.55-.63,4.79,1,6.66C674.17,230.2,677.07,233,679.94,235.93Z"/><path class="cls-2" d="M670.28,182.81c3.87.44,3.87.44,3.67,4-.05.78-.08,1.57-.12,2.31a1.54,1.54,0,0,1-.32.06c-3.23-.51-3.23-.51-3.23-3.69Z"/><path class="cls-2" d="M670.64,198.32c3.48.55,3.68.88,2.91,4.69C670.61,203.11,670.34,202.68,670.64,198.32Z"/><path class="cls-2" d="M672,225.81c-1.5-1.41-.88-2.89-.47-4.38C673.56,222.25,673.73,223.64,672,225.81Z"/><path class="cls-2" d="M670.9,210.33l2.57,1.5c-.35.37-.68,1.06-1,1.07C671.21,212.93,670.9,212.05,670.9,210.33Z"/><path class="cls-2" d="M549.67,178.06a60.56,60.56,0,0,0,3.21,18.08,117.78,117.78,0,0,0,13.32,27.47A109.23,109.23,0,0,0,574.65,235a60.11,60.11,0,0,0,8.45,8.27l.82-1.06a66.77,66.77,0,0,1-11.07-11.54,123,123,0,0,1-15.16-25.6c-4.05-9.3-6.68-18.85-6.68-27Z"/><path class="cls-2" d="M795,178.06a59.42,59.42,0,0,1-3.15,17.68,116.94,116.94,0,0,1-13.17,27.14,106.92,106.92,0,0,1-8.35,11.24,58.35,58.35,0,0,1-8.25,8.08l.82,1.06a67.33,67.33,0,0,0,11.31-11.78,124.15,124.15,0,0,0,15.33-25.89,92.87,92.87,0,0,0,4.93-14.13,54.67,54.67,0,0,0,1.87-13.4Z"/><path class="cls-2" d="M801.2,168.58c-1-.7-2.34-1.65-3.27-2.38a1.15,1.15,0,0,0-1.65,0c-1,.77-2,1.46-3.3,2.42.49-1.54.83-2.76,1.26-3.94a1,1,0,0,0-.49-1.43c-1-.68-2-1.46-3.33-2.43,1.45,0,2.49,0,3.65,0s1.51-.25,1.86-1.32a14.22,14.22,0,0,1,1.26-3.1c.36,1.08.78,2.14,1.06,3.24.23.88.62,1.24,1.57,1.17,1.18-.09,2.36,0,3.93,0-1.2.87-2,1.57-3,2.14a1.48,1.48,0,0,0-.73,2.17,30.37,30.37,0,0,1,1,3A3.21,3.21,0,0,1,801.2,168.58Z"/><path class="cls-2" d="M552.22,168.58c-1-.7-2.34-1.65-3.26-2.38a1.15,1.15,0,0,0-1.65,0c-1,.77-2,1.46-3.31,2.42.49-1.54.83-2.76,1.26-3.94a1,1,0,0,0-.48-1.43c-1-.68-2-1.46-3.33-2.43,1.44,0,2.48,0,3.64,0s1.51-.25,1.86-1.32a14.22,14.22,0,0,1,1.26-3.1c.36,1.08.78,2.14,1.07,3.24a1.29,1.29,0,0,0,1.57,1.17c1.17-.09,2.36,0,3.92,0-1.19.87-2,1.57-3,2.14a1.48,1.48,0,0,0-.74,2.17,28,28,0,0,1,1,3A2.38,2.38,0,0,1,552.22,168.58Z"/><path class="cls-2" d="M620.65,274.4c-2.85.86-5-.83-5-4a5.59,5.59,0,0,0-.6.35,3.34,3.34,0,0,1-3,.35,3.42,3.42,0,0,1-1.56-.59,2.62,2.62,0,0,1-1-2.17c0-.11,0-.23,0-.42a2.19,2.19,0,0,0-.46.16,1.88,1.88,0,0,1-2.14,0,2,2,0,0,1-.9-2c0-.13,0-.27,0-.51a5,5,0,0,0-.52.21,1.8,1.8,0,0,1-2.13,0,1.94,1.94,0,0,1-.81-2.11,2.33,2.33,0,0,0,0-.32c-2.52.51-4.34-.53-5.76-2.56l-.42.31c-.53.36-1.08.7-1.6,1.08a4.11,4.11,0,0,1-3.74.45,9.42,9.42,0,0,1-4.39-2.71,4.11,4.11,0,0,1-.38-5.47,8.89,8.89,0,0,1,4.27-3.22,1.87,1.87,0,0,1,.39,0c-.19.2-.29.3-.39.39a24.6,24.6,0,0,0-2.07,2,3.32,3.32,0,0,0,.13,4.77,8.51,8.51,0,0,0,5,2.82h.07c1.07.15,1.37,0,1.89-.92a5.35,5.35,0,0,0,.74-2.55.93.93,0,0,1,.79-1c.53-.15,1-.36,1.65-.58-.06.46-.09.83-.15,1.18a2.94,2.94,0,0,0,1.76,3.73,3.25,3.25,0,0,0,3.85-.2.54.54,0,0,1,.19-.08s0,0,.12,0l-.09.49a7,7,0,0,0-.16,1.28,1.55,1.55,0,0,0,2.22,1.36,4.82,4.82,0,0,0,.9-.62c.14-.1.26-.22.52-.43-.07.33-.12.5-.15.67a5.67,5.67,0,0,0-.13,1.35,1.54,1.54,0,0,0,2.35,1.21,5.28,5.28,0,0,0,.77-.57c.12-.09.23-.2.45-.4a3,3,0,0,1,0,.55,3.9,3.9,0,0,0,0,1.7c.21,1.18,1.09,1.55,2.09,1.77a2.59,2.59,0,0,0,2-.31c.43-.26.85-.54,1.27-.81.15-.09.29-.2.56-.38v.68a11.6,11.6,0,0,0,.09,1.77,2.68,2.68,0,0,0,2.08,2.38,3.32,3.32,0,0,0,3.5-1.23,4.59,4.59,0,0,1,.33-.44.41.41,0,0,1,.73.08c.1.18.16.38.25.57.34.75.64,1.52,1,2.24a11.3,11.3,0,0,0,1.17,1.6,3.6,3.6,0,0,0,1.82,1.18,14.39,14.39,0,0,0,3.67.84c1.29.05,1.66-.41,1.2-1.63a13.93,13.93,0,0,0-3-4.51L629,270c.46-.63.89-1.29,1.39-1.91,1.18-1.46.67-1.17,2.43-1.2,2.63-.05,5.27-.08,7.9-.12.25,0,.5,0,.83,0-.12.16-.19.28-.29.39a10.1,10.1,0,0,0-.94.91,2,2,0,0,1-1.8.71c-2.07-.08-4.13-.09-6.19-.12l-1.14,0c.17.26.25.41.35.55.67.84,1.38,1.66,2,2.53a11.83,11.83,0,0,1,1.15,2,3.17,3.17,0,0,1-.4,3.25,8.71,8.71,0,0,1-2.51,2.21,1.12,1.12,0,0,1-.66.1,13.38,13.38,0,0,1-3.31-.59A4.1,4.1,0,0,1,625,277a7.27,7.27,0,0,1-.46.79,11.6,11.6,0,0,1-1,1.37c-.44.47-.67.46-1.21.13a3.82,3.82,0,0,1-1.86-4C620.53,275,620.59,274.68,620.65,274.4Zm2-.67a2.42,2.42,0,0,0,.92,3.58A3.66,3.66,0,0,0,622.64,273.73Z"/><path class="cls-2" d="M642.65,280l-.24.61a9.72,9.72,0,0,0-.75,2.78,3.26,3.26,0,0,0,2.17,3.71,8.62,8.62,0,0,0,5.8.23,5.93,5.93,0,0,0,.69-.29,1.38,1.38,0,0,0,.91-1.16c.5-3,1.08-6,1.54-9,.22-1.45.25-2.92.38-4.38a.82.82,0,0,1,.14-.5c.63-.69,1.29-1.35,1.93-2l.15.06c-.1.64-.17,1.28-.29,1.92-.55,2.95-1.11,5.9-1.65,8.85a4.29,4.29,0,0,0,0,1.29,1.81,1.81,0,0,0,1.87,1.65c1.23.05,2.47.07,3.7.09a2.34,2.34,0,0,0,.74-.12c.78-.21,1-.72.69-1.46a4.75,4.75,0,0,0-.77-1.12,18,18,0,0,0-3.22-2.68l-1.39-.92a2.17,2.17,0,0,1,.1-.47c.36-.91.74-1.82,1.11-2.73a.73.73,0,0,1,.52-.49c3.36-.93,6.71-1.88,10.06-2.82a1.23,1.23,0,0,1,.28,0c-.48.78-.91,1.53-1.4,2.24-.1.16-.38.23-.59.28-2.55.65-5.11,1.28-7.66,1.92l-.71.21a5.82,5.82,0,0,0,.46.4,34.34,34.34,0,0,1,7.17,7c.21.25.42.49.64.73a2.48,2.48,0,0,0,2.18.89c.84-.1,1.7,0,2.54-.12a6.61,6.61,0,0,0,1.25-.33,6.71,6.71,0,0,0-1.38-2.91c.38-.67.76-1.36,1.19-2.13a7.22,7.22,0,0,1,1.42,4,1.89,1.89,0,0,1-.2.8c-.14.33-.33.64-.5,1a3.43,3.43,0,0,1-3.19,1.88,14,14,0,0,1-1.71.1,4.39,4.39,0,0,1-2.92-1.37c-.45-.48-.84-1-1.26-1.54-.26-.32-.5-.65-.76-1-.53.72-1,1.38-1.52,2.06a1.55,1.55,0,0,1-1,.6,10.29,10.29,0,0,1-3.27.29c-.34,0-.68,0-1,0a2.11,2.11,0,0,1-1.77-1.33c-.09-.22-.15-.47-.24-.76a1.74,1.74,0,0,0-.16.36,11.39,11.39,0,0,1-1.88,4,2.59,2.59,0,0,1-.85.76,7.9,7.9,0,0,1-5.07.81,8.65,8.65,0,0,1-2.18-.57,3.79,3.79,0,0,1-2.54-3.66,8.29,8.29,0,0,1,2.16-5.64.54.54,0,0,1,.16-.1Z"/><path class="cls-2" d="M729.15,266.8c.17.14.32.3.5.42a5.44,5.44,0,0,0,1.13.62,1.52,1.52,0,0,0,2-1.53,9.75,9.75,0,0,0-.3-1.61c.17.1.29.17.4.25a6.76,6.76,0,0,0,1.08.72,1.59,1.59,0,0,0,2.26-1.72c-.06-.42-.19-.83-.33-1.41l.57.42a3.19,3.19,0,0,0,2.24.71,1.29,1.29,0,0,0,.63-.22c.71-.57,1.43-1.14,2.09-1.77a12,12,0,0,0,1.48-1.71c.49-.72.3-1.17-.52-1.48a8.32,8.32,0,0,0-2.85-.34,16.33,16.33,0,0,0-3.75.41l-.76.12c-.31-.82-.64-1.62-.92-2.43-.42-1.2-.41-1.21.25-2.26l4.39-7,.45-.69c.14.65.26,1.17.35,1.7.24,1.41.35.92-.42,2.08q-1.78,2.7-3.59,5.38c-.12.18-.23.38-.41.67.67-.06,1.23-.12,1.79-.16a32.87,32.87,0,0,1,3.43-.2,3.56,3.56,0,0,1,3.71,3.18,3,3,0,0,1,.08.41c.05.48.06,1,.12,1.44a1.58,1.58,0,0,1-.44,1.38c-.71.75-1.43,1.48-2.15,2.22-.26.27-.56.5-.81.8a2.16,2.16,0,0,1-1.15.53,2.38,2.38,0,0,1-1.61-.2l-.53-.25c.14,1,.08,1.94-.86,2.49a2.35,2.35,0,0,1-2.68-.4c.1,1.08.12,2-.84,2.54a2.2,2.2,0,0,1-2.63-.34,4.22,4.22,0,0,1-2.61,3.5,3.83,3.83,0,0,1-4.23-.78,5,5,0,0,0-.09.65,3.63,3.63,0,0,1-1.61,2.9,4.91,4.91,0,0,1-2.09.84,2,2,0,0,1-2-.68,10.54,10.54,0,0,1-1.21-1.83c-.52-1-.93-2.09-1.41-3.13a29.72,29.72,0,0,0-3.11-5.49,1,1,0,0,1-.16-.63c.1-.79.25-1.57.42-2.52.18.32.3.5.39.7l3.81,8.3c.29.63.57,1.26.91,1.85a2,2,0,0,0,3.15.76,2.68,2.68,0,0,0,1.44-2.21c.05-.68.05-1.36.08-2.15.2.11.33.17.45.25a14.76,14.76,0,0,0,1.67,1.07,3.39,3.39,0,0,0,4.68-2.42,3.86,3.86,0,0,0,0-1,5.31,5.31,0,0,0-.08-.67Z"/><path class="cls-2" d="M686.79,280.47c.17.26.27.43.39.58a8.72,8.72,0,0,0,1.08,1.33,4.55,4.55,0,0,0,1.47.83,1.79,1.79,0,0,0,2.34-1.12c.36-.94.63-1.91,1-2.85a5.62,5.62,0,0,1,.72-1.4,1.67,1.67,0,0,1,2.84,0,10.69,10.69,0,0,1,1.82,4.12,2.32,2.32,0,0,1-.07,1c-.24.9-.59,1.15-1.53,1.16a8.82,8.82,0,0,1-3.77-.88c-.11.29-.22.56-.32.83a2.19,2.19,0,0,1-2.16,1.48,3.65,3.65,0,0,1-3-1.61l-.31-.44c-.12.27-.23.46-.3.67a3,3,0,0,1-1.56,1.75,6.35,6.35,0,0,1-1.87.63,2.24,2.24,0,0,1-2.22-1.09l-.45-.7c-.05.08-.09.12-.11.16a3.16,3.16,0,0,1-2.22,1.95,9,9,0,0,1-2.76.51,2.19,2.19,0,0,1-.88-.13,1.68,1.68,0,0,1-.71-.58,5.58,5.58,0,0,1,0-2.82c0,.06.12.1.13.15a1.21,1.21,0,0,0,1,1,5.37,5.37,0,0,0,2.52.06,6.93,6.93,0,0,0,2.72-1.15,16.53,16.53,0,0,0-2.22-3.81.83.83,0,0,1-.16-1c.19-.43.33-.88.54-1.44.28.43.52.74.7,1.08.64,1.16,1.25,2.34,1.89,3.51a12.56,12.56,0,0,0,.85,1.41,1.42,1.42,0,0,0,1.56.6,3.06,3.06,0,0,0,2.35-1.8C686.28,281.83,686.5,281.23,686.79,280.47Zm9.79,1.12a7.12,7.12,0,0,0-1.21-2.32.75.75,0,0,0-1.36.17,14.64,14.64,0,0,0-.51,1.41A4.26,4.26,0,0,0,696.58,281.59Z"/><path class="cls-2" d="M712.22,277l.42-2.36a3.1,3.1,0,0,1,.45.23,5.9,5.9,0,0,1,2.75,5c0,.66,0,1.33,0,2a2.25,2.25,0,0,1-.47,1.4,8.37,8.37,0,0,1-6.93,3.68,3.37,3.37,0,0,1-2.92-1.55,8.12,8.12,0,0,1-1.22-6.23.62.62,0,0,1,.07-.19s0,0,.09-.1a1.81,1.81,0,0,1,.14.33c.18.8.33,1.61.51,2.41a4.22,4.22,0,0,0,.33.83,3.24,3.24,0,0,0,3.74,2,8.18,8.18,0,0,0,5-2.71c1.11-1.3,1.09-1.4.13-2.79a9.86,9.86,0,0,0-1.43-1.46A7.53,7.53,0,0,0,712.22,277Z"/><path class="cls-2" d="M740.08,245.24c.49.51,1,1,1.46,1.53,1.82,2,3.62,4,5.45,6a11,11,0,0,0,1.43,1.38,1.78,1.78,0,0,0,2.4,0,11.08,11.08,0,0,0,2.33-2.5c.14-.23.25-.48.39-.76a6.67,6.67,0,0,0-3-1.12c-.2-.73-.41-1.47-.64-2.29.23,0,.38,0,.52.06a7.79,7.79,0,0,1,2.79,1.28,2.5,2.5,0,0,1,1,1.42c.17.68.3,1.38.43,2.07a1.08,1.08,0,0,1-.09.53,7.21,7.21,0,0,1-3.2,3.64,1.93,1.93,0,0,1-2.09,0,7.82,7.82,0,0,1-1.51-1.17c-.79-.8-1.5-1.67-2.26-2.5a31.67,31.67,0,0,0-4.87-4.53.82.82,0,0,1-.34-.46c-.14-.81-.24-1.63-.35-2.44Z"/><path class="cls-2" d="M675.5,275.14l1.53.05a5,5,0,0,0,0-.65c-.14-1-.3-2-.41-3.05a4.26,4.26,0,0,1,.14-1l.88.89a2.05,2.05,0,0,0-.24,1.66c0,.47,0,.94.07,1.49a8.52,8.52,0,0,1,.79-.73,6.31,6.31,0,0,1,1.09-.7,1.12,1.12,0,0,1,1.33.26,1.14,1.14,0,0,1,.13,1.22,2,2,0,0,1-1.84,1.57c-.59.07-1.18.14-1.77.17a1.25,1.25,0,0,1-1.22-.6C675.89,275.59,675.75,275.45,675.5,275.14Zm4.77-.46c-.24-.44-.33-.51-.79-.51a2.07,2.07,0,0,0-1.61.94A5.45,5.45,0,0,0,680.27,274.68Z"/><path class="cls-2" d="M595.66,252.77c-.09-.8-.17-1.5-.25-2.23l1.9-.48.27,2.21Z"/><path class="cls-2" d="M708.25,275.54l-2-.9c.18-.63.35-1.23.55-1.9l2,.91Z"/><path class="cls-2" d="M610.72,261.82l-.51-2,1.61-.64a11.52,11.52,0,0,1,.55,1.93Z"/><path class="cls-2" d="M756.23,256.16c-.09-.55-.18-1.08-.28-1.65a8,8,0,0,1,2-.15l.3,1.68A8.15,8.15,0,0,1,756.23,256.16Z"/><path class="cls-2" d="M754.23,258.26c-.1-.6-.19-1.15-.28-1.76l2-.1.34,1.76Z"/><path class="cls-2" d="M607.74,258.35l1.67-.65.49,1.93-1.65.7C608.08,259.65,607.92,259,607.74,258.35Z"/><path class="cls-2" d="M610.51,258.88l-.52-2,1.67-.65.52,1.93Z"/><path class="cls-2" d="M609.84,275.45l1.54-.8a12.57,12.57,0,0,1,.72,1.84l-1.55.87Z"/><path class="cls-2" d="M720.71,266.49l.25-1.71a11.44,11.44,0,0,1,1.94.47c-.08.6-.15,1.14-.23,1.76Z"/><path class="cls-2" d="M670.62,291.1l-1.51-1.37,1-1.45,1.48,1.33Z"/><path class="cls-2" d="M688.07,290.52c.29-.55.53-1,.82-1.59l1.66,1.11c-.26.53-.5,1-.77,1.6Z"/><path class="cls-2" d="M613.86,275.76l.69,1.89-1.54.82a12.09,12.09,0,0,1-.71-1.91Z"/><path class="cls-2" d="M667.94,291.21l-1.5-1.37,1-1.46,1.47,1.35Z"/><path class="cls-2" d="M718.64,266.05l1.91.53c-.07.57-.14,1.13-.22,1.76l-1.94-.52Z"/><path class="cls-2" d="M687.91,290.56l-.77,1.59-1.7-1.12.81-1.6Z"/><path class="cls-2" d="M756.89,257l1.86-.1.29,1.63-1.86.1Z"/><path class="cls-2" d="M552.14,136.93l-.36,2.16,5.06.84-.52,3.13-14.06-2.33.87-5.29a4.9,4.9,0,0,1,1.85-3.27,4.64,4.64,0,0,1,6.48,1.07A5,5,0,0,1,552.14,136.93Zm-3,1.69.3-1.82a2.16,2.16,0,0,0-.25-1.53,1.66,1.66,0,0,0-1.21-.77,1.72,1.72,0,0,0-1.41.33,2.15,2.15,0,0,0-.72,1.38l-.31,1.82Z"/><path class="cls-2" d="M560.7,123l-3.07.21-1.46,5.31,2.51,1.76-.88,3.22-12.31-9,1-3.55,15.15-1.32Zm-11.33.75,4.28,3,.93-3.33Z"/><path class="cls-2" d="M565.51,110.25l-6.65,1.4,1,2.17,3.52,1.46-1.21,2.94L549,112.76l1.22-2.94,5.53,2.3L552.25,105l1.6-3.86,3.58,7.49,9.6-2Z"/><path class="cls-2" d="M569.43,102.35l-1.49,2.85L555.3,98.6l1.49-2.85Z"/><path class="cls-2" d="M566.92,85.66l-.84,2.84a2.31,2.31,0,0,0-1.39-.09,2.37,2.37,0,0,0-1.39,1.15,2.19,2.19,0,0,0-.36,1.44,1.36,1.36,0,0,0,.62,1c.63.39,1.26.23,1.91-.47l1.32-1.43a5.29,5.29,0,0,1,2.92-1.76,3.93,3.93,0,0,1,2.9.55,4.2,4.2,0,0,1,1.91,2.88,5.36,5.36,0,0,1-.89,4,5.92,5.92,0,0,1-3.4,2.8,5,5,0,0,1-3.57-.28l1-2.85a2.62,2.62,0,0,0,1.93.23,3,3,0,0,0,1.71-1.43,2.35,2.35,0,0,0,.43-1.46,1.27,1.27,0,0,0-.62-1,1.23,1.23,0,0,0-1-.15,2.34,2.34,0,0,0-1,.69l-1.34,1.46A5,5,0,0,1,565,95.38a3.87,3.87,0,0,1-2.85-.57,4.12,4.12,0,0,1-2-3,5.29,5.29,0,0,1,.8-3.75,7,7,0,0,1,1.5-1.73,4,4,0,0,1,1.63-.84,5,5,0,0,1,1.51-.13A4.15,4.15,0,0,1,566.92,85.66Z"/><path class="cls-2" d="M575.18,74.11l-2.72,3.47,8.83,6.92-2,2.5-8.83-6.92-2.7,3.45-2.39-1.87,7.38-9.42Z"/><path class="cls-2" d="M591,73.83l-2.8-1.28-3.83,4,1.37,2.75-2.32,2.39-6.51-13.77,2.56-2.64,13.93,6.1Zm-10.3-4.77L583,73.74l2.41-2.48Z"/><path class="cls-2" d="M604.21,62.62l-2.62,2.1-10.44-3.65L597,68.39l-2.47,2-8.9-11.13,3-2.41,9.59,3.42-5.41-6.76,2.48-2Z"/><path class="cls-2" d="M629.53,48.72l-2.82,1.34-4.05-8.54.69,10.13L621,52.76l-7.36-6.83,4,8.42-2.73,1.3-6.11-12.88L612.57,41l7.67,7-.77-10.29,3.94-1.88Z"/><path class="cls-2" d="M640.89,45.12l-8.62,2.77L627.9,34.33l8.59-2.77.92,2.85-5.57,1.79.83,2.59,5.05-1.63.86,2.66-5.05,1.63.84,2.6,5.59-1.8Z"/><path class="cls-2" d="M648.32,43.41l-5,1-2.84-14,5.07-1a7.07,7.07,0,0,1,5.47.86,6.94,6.94,0,0,1,3,4.71,6.93,6.93,0,0,1-.89,5.49A7.16,7.16,0,0,1,648.32,43.41Zm-2.52-2.55,1.81-.37a3.73,3.73,0,0,0,3.08-4.83A3.74,3.74,0,0,0,646,32.4l-1.81.36Z"/><path class="cls-2" d="M660.73,41.5l-3.19.36L656,27.69l3.2-.36Z"/><path class="cls-2" d="M670.25,41.27a7.25,7.25,0,0,1-5.3-2A7.07,7.07,0,0,1,662.71,34a7.27,7.27,0,0,1,7.2-7.61,7.93,7.93,0,0,1,2.78.4,5.55,5.55,0,0,1,2,1.15A7.48,7.48,0,0,1,676,29.47a5.24,5.24,0,0,1,.67,1.61l-3,1a3.46,3.46,0,0,0-.34-.83,4.12,4.12,0,0,0-.64-.83,2.8,2.8,0,0,0-1.12-.68,4,4,0,0,0-1.59-.24,4.07,4.07,0,0,0-2.82,1.19A4.21,4.21,0,0,0,666,34a4,4,0,0,0,4.19,4.14,3.63,3.63,0,0,0,2.54-.88,3.83,3.83,0,0,0,1.14-1.87l3.06.8a6.57,6.57,0,0,1-.62,1.64,7.43,7.43,0,0,1-1.2,1.62,5.81,5.81,0,0,1-2,1.32A8.2,8.2,0,0,1,670.25,41.27Z"/><path class="cls-2" d="M687.8,41.91l-.73-3-5.48-.55-1.31,2.77L677,40.82l6.77-13.65,3.66.37,3.85,14.72Zm-2.65-11-2.23,4.73,3.44.34Z"/><path class="cls-2" d="M701.9,44.62l-9.12-2,3-13.94,3.1.67-2.34,11,6,1.29Z"/><path class="cls-2" d="M714.52,49.14a7.25,7.25,0,0,1-4.17-3.82,7.11,7.11,0,0,1-.07-5.74,7.26,7.26,0,0,1,9.55-4.31,7.83,7.83,0,0,1,2.42,1.41,5.62,5.62,0,0,1,1.44,1.84,7.6,7.6,0,0,1,.59,1.87,5.42,5.42,0,0,1,0,1.75l-3.14-.2a3.31,3.31,0,0,0,0-.89,4.14,4.14,0,0,0-.28-1A2.81,2.81,0,0,0,720.1,39a4.45,4.45,0,0,0-1.38-.83,4.08,4.08,0,0,0-3.05,0,4.19,4.19,0,0,0-2.31,2.57,4,4,0,0,0,2.31,5.42,3.72,3.72,0,0,0,2.68.15,3.91,3.91,0,0,0,1.77-1.3l2.52,1.9a6.26,6.26,0,0,1-1.2,1.28,7.07,7.07,0,0,1-1.71,1,5.6,5.6,0,0,1-2.37.46A7.81,7.81,0,0,1,714.52,49.14Z"/><path class="cls-2" d="M725.28,45.46a7.07,7.07,0,0,1,4.48-3.68,7.36,7.36,0,0,1,5.6.72,7.26,7.26,0,0,1,3.6,4.34,7.76,7.76,0,0,1-5.15,9.41,7.72,7.72,0,0,1-9.21-5A7,7,0,0,1,725.28,45.46Zm5.52-.65A4.05,4.05,0,0,0,728.18,47a4.08,4.08,0,0,0-.46,3.39,4.2,4.2,0,0,0,2,2.36,4.13,4.13,0,0,0,3.06.41,4.32,4.32,0,0,0,1.09-8A4.15,4.15,0,0,0,730.8,44.81Z"/><path class="cls-2" d="M749.38,69.64l-2.48-1.89,5.73-7.51-8.69,5.26-2.05-1.56,2.7-9.67-5.66,7.42-2.4-1.83,8.64-11.34,3.3,2.51-2.72,10,8.79-5.41L758,58.3Z"/><path class="cls-2" d="M762.55,83.2l-2.14-2.26,6.85-6.51-9.41,3.81-1.77-1.87,4.2-9.12-6.76,6.43-2.08-2.19,10.34-9.82,2.85,3-4.29,9.47,9.55-3.93,3,3.16Z"/><path class="cls-2" d="M766.14,88.21l-1.95-2.55L775.52,77l2,2.56Z"/><path class="cls-2" d="M782.33,93l-2.23-2a2.12,2.12,0,0,0,.67-1.22,2.34,2.34,0,0,0-.45-1.74,2.19,2.19,0,0,0-1.15-.94,1.36,1.36,0,0,0-1.19.13c-.62.4-.75,1-.39,1.93l.73,1.8a5.26,5.26,0,0,1,.36,3.39A3.9,3.9,0,0,1,777,96.78a4.21,4.21,0,0,1-3.42.51,5.36,5.36,0,0,1-3.22-2.49,5.85,5.85,0,0,1-1.09-4.26A5,5,0,0,1,771,87.43l2.17,2.06a2.7,2.7,0,0,0-1,1.66,3,3,0,0,0,.57,2.16,2.35,2.35,0,0,0,1.14,1,1.31,1.31,0,0,0,1.2-.13,1.22,1.22,0,0,0,.55-.83,2.34,2.34,0,0,0-.18-1.23l-.76-1.83a5.06,5.06,0,0,1-.31-3.19,3.86,3.86,0,0,1,1.72-2.34,4.1,4.1,0,0,1,3.57-.51,5.27,5.27,0,0,1,3.05,2.31,6.69,6.69,0,0,1,.93,2.09,4.13,4.13,0,0,1,.08,1.83,5.24,5.24,0,0,1-.52,1.43A4.51,4.51,0,0,1,782.33,93Z"/><path class="cls-2" d="M788.43,104.72l-2-2.18a2.27,2.27,0,0,0,.79-1.15,2.38,2.38,0,0,0-.27-1.78,2.16,2.16,0,0,0-1-1,1.42,1.42,0,0,0-1.21,0c-.66.34-.85,1-.58,1.88l.54,1.87a5.3,5.3,0,0,1,0,3.41,4,4,0,0,1-2,2.2,4.21,4.21,0,0,1-3.45.15,5.33,5.33,0,0,1-3-2.81,5.82,5.82,0,0,1-.65-4.35A5,5,0,0,1,777.74,98l1.94,2.28a2.67,2.67,0,0,0-1.19,1.54,3,3,0,0,0,.35,2.2,2.39,2.39,0,0,0,1,1.13,1.3,1.3,0,0,0,1.2,0,1.18,1.18,0,0,0,.64-.77,2.23,2.23,0,0,0-.06-1.24l-.56-1.9a5.05,5.05,0,0,1,0-3.2,3.87,3.87,0,0,1,1.95-2.15,4.16,4.16,0,0,1,3.61-.14,5.35,5.35,0,0,1,2.8,2.61,7.11,7.11,0,0,1,.71,2.18,4.17,4.17,0,0,1-.12,1.83,5.06,5.06,0,0,1-.66,1.36A4.61,4.61,0,0,1,788.43,104.72Z"/><path class="cls-2" d="M780.92,114.76l-1.22-3,13.18-5.43,1.22,3Z"/><path class="cls-2" d="M788.71,114.61a7.09,7.09,0,0,1,5.77.5,7.73,7.73,0,0,1,3,10.06,7.77,7.77,0,0,1-10.27,3.12,7.75,7.75,0,0,1-3-10.06A7.08,7.08,0,0,1,788.71,114.61Zm4.4,3.4a4.07,4.07,0,0,0-3.42-.25,4,4,0,0,0-2.7,2.11,4.31,4.31,0,0,0,1.67,5.51,4.1,4.1,0,0,0,3.42.25,4.16,4.16,0,0,0,1-7.62Z"/><path class="cls-2" d="M788.55,145.07l-.53-3.32,8.31-7.29-9.25,1.5-.5-3.12,14.07-2.27.62,3.81-7.7,6.66,8.55-1.38.51,3.13Z"/></svg>