<svg id="Component_13_1" data-name="Component 13 – 1" xmlns="http://www.w3.org/2000/svg" width="25.44" height="22.226" viewBox="0 0 25.44 22.226">
  <path id="Path_6347" data-name="Path 6347" d="M3888.96,124.333a5.449,5.449,0,1,0-5.449-5.449A5.449,5.449,0,0,0,3888.96,124.333Z" transform="translate(-3876.24 -113.434)" fill="#776b80"/>
  <path id="Path_6348" data-name="Path 6348" d="M3888.993,158.634s-1.6-2.313-8.114-4.106a19.592,19.592,0,0,0-4.219-.646h-.025a19.611,19.611,0,0,0-4.22.646c-6.517,1.792-8.113,4.106-8.113,4.106a1.431,1.431,0,0,0,.782,2.346s5.7.073,11.551.109h.025c5.855-.036,11.551-.109,11.551-.109A1.43,1.43,0,0,0,3888.993,158.634Z" transform="translate(-3863.928 -138.864)" fill="#776b80"/>
</svg>
